mtllib cmn_obj_balloonR_SD.mtl

v 1.093262 -4.767090 -2.145996
v 2.378662 -4.767090 0.376709
v 0.000000 -6.073242 0.000000
v 3.959473 -3.228027 -0.627197
v 2.834473 -3.228027 -2.834473
v 4.834717 -1.622559 -0.765625
v 3.461182 -1.622559 -3.461182
v 4.771240 0.400879 -1.550293
v 4.058594 0.400879 -2.948730
v 4.006836 2.397217 -2.041504
v 2.948730 0.400879 -4.058594
v 2.041504 2.397217 -4.006836
v 1.550293 0.400879 -4.771240
v 0.000000 0.400879 -5.016846
v 0.765625 -1.622559 -4.834717
v -2.222168 -1.622559 -4.361328
v -1.819824 -3.228027 -3.571777
v -3.571777 -3.228027 -1.819824
v -1.702881 -4.767090 -1.702881
v -2.145996 -4.767090 1.093262
v 0.376709 -4.767090 2.378662
v 1.819824 -3.228027 3.571777
v 3.571777 -3.228027 1.819824
v 2.222168 -1.622559 4.361328
v 4.361328 -1.622559 2.222168
v 2.948730 0.400879 4.058594
v 4.058594 0.400879 2.948730
v 3.179932 2.397217 3.179932
v 4.771240 0.400879 1.550293
v 4.441650 2.397217 0.703369
v 5.016846 0.400879 0.000000
v 3.312012 3.909424 0.524658
v 2.987793 3.909424 -1.522461
v 1.871582 4.735840 0.953613
v 1.485107 4.735840 -1.485352
v 0.000000 5.259766 0.000000
v -0.953613 4.735840 -1.871582
v -2.074463 4.735840 0.328613
v -3.312012 3.909424 -0.524658
v -2.987793 3.909424 1.522461
v -4.006836 2.397217 2.041504
v -2.041504 2.397217 4.006836
v -2.948730 0.400879 4.058594
v -1.550293 0.400879 4.771240
v -0.765625 -1.622559 4.834717
v 0.000000 0.400879 5.016846
v 1.550293 0.400879 4.771240
v 0.703369 2.397217 4.441650
v 0.524658 3.909424 3.312012
v 2.371338 3.909424 2.371338
v -0.328613 4.735840 2.074463
v -0.627197 -3.228027 3.959473
v -3.461182 -1.622559 3.461182
v -2.834473 -3.228027 2.834473
v -4.834717 -1.622559 0.765625
v -3.959473 -3.228027 0.627197
v -4.361328 -1.622559 -2.222168
v -4.058594 0.400879 2.948730
v -4.771240 0.400879 1.550293
v -4.441650 2.397217 -0.703369
v -5.016846 0.400879 0.000000
v -4.771240 0.400879 -1.550293
v 1.522461 3.909424 -2.988037
v -0.703369 2.397217 -4.441650
v -0.524658 3.909424 -3.312012
v -3.179932 2.397217 -3.179932
v -2.371338 3.909424 -2.371338
v -1.550293 0.400879 -4.771240
v -2.948730 0.400879 -4.058594
v -4.058594 0.400879 -2.948730
v 0.627197 -3.228027 -3.959473
v -1.522461 3.909424 2.988037
v 0.000000 -6.809326 -0.554688
v 0.000000 -6.809326 0.554688
v -0.554688 -6.809326 0.000000
v 0.554688 -6.809326 0.000000
v 0.554688 -6.809326 0.000000
v 0.000000 -5.848389 0.000000
v 0.000000 -6.809326 0.554688
v 0.000000 -6.809326 -0.554688
v -0.554688 -6.809326 0.000000
v 0.000000 -6.809326 0.554688
v 0.000000 -6.809326 -0.554688

vt 0.154480 0.244629
vt 0.147034 0.244537
vt 0.148193 0.334412
vt 0.150482 0.233459
vt 0.157013 0.233551
vt 0.151398 0.221863
vt 0.159363 0.221985
vt 0.154327 0.207275
vt 0.158478 0.207336
vt 0.156403 0.192871
vt 0.161743 0.207397
vt 0.162201 0.192963
vt 0.163849 0.207428
vt 0.164581 0.207458
vt 0.163422 0.222046
vt 0.162018 0.222046
vt 0.159180 0.233582
vt 0.153992 0.233521
vt 0.153198 0.244629
vt 0.144928 0.244476
vt 0.141113 0.244415
vt 0.138092 0.233246
vt 0.143250 0.233337
vt 0.136261 0.221619
vt 0.142578 0.221710
vt 0.137756 0.207001
vt 0.141052 0.207062
vt 0.140991 0.192627
vt 0.145172 0.207123
vt 0.148285 0.192749
vt 0.149750 0.207214
vt 0.149292 0.181824
vt 0.155334 0.181946
vt 0.148285 0.175842
vt 0.155487 0.175964
vt 0.151245 0.172089
vt 0.156616 0.175964
vt 0.150116 0.175873
vt 0.152405 0.181885
vt 0.146332 0.181793
vt 0.144348 0.192688
vt 0.138550 0.192596
vt 0.137756 0.207001
vt 0.135651 0.206970
vt 0.134857 0.221588
vt 0.134949 0.206970
vt 0.135651 0.206970
vt 0.137268 0.192566
vt 0.141052 0.181702
vt 0.143829 0.181732
vt 0.144958 0.175781
vt 0.136932 0.233246
vt 0.138916 0.221649
vt 0.140259 0.233276
vt 0.146881 0.221802
vt 0.146790 0.233398
vt 0.155701 0.221924
vt 0.141052 0.207062
vt 0.145172 0.207123
vt 0.152466 0.192810
vt 0.149750 0.207214
vt 0.154327 0.207275
vt 0.159668 0.182007
vt 0.163483 0.192993
vt 0.160614 0.182007
vt 0.159760 0.192932
vt 0.157837 0.181976
vt 0.163849 0.207428
vt 0.161743 0.207397
vt 0.158478 0.207336
vt 0.160339 0.233612
vt 0.142029 0.181732
vt 0.255798 0.015015
vt 0.490417 0.218964
vt 0.495850 0.005798
vt 0.495850 0.005798
vt 0.358337 0.135223
vt 0.018311 0.487335
vt 0.182648 0.011536
vt 0.479187 0.331726
vt 0.358337 0.135223
vt 0.479187 0.331726
vt 0.182648 0.011536

vn 0.257327 -0.823861 -0.505010
vn 0.559817 -0.823857 0.088685
vn 0.000000 -1.000000 0.000000
vn 0.779561 -0.610795 -0.138614
vn 0.570376 -0.610781 -0.549197
vn 0.942651 -0.298530 -0.149296
vn 0.674865 -0.298522 -0.674865
vn 0.946109 0.091858 -0.310548
vn 0.807355 0.091856 -0.582873
vn 0.795575 0.450246 -0.405386
vn 0.582873 0.091856 -0.807355
vn 0.405335 0.450257 -0.795595
vn 0.310548 0.091858 -0.946109
vn -0.002991 0.091856 -0.995768
vn 0.149296 -0.298530 -0.942651
vn -0.433280 -0.298517 -0.850386
vn -0.346072 -0.610784 -0.712164
vn -0.712164 -0.610784 -0.346072
vn -0.400809 -0.823835 -0.400809
vn -0.505010 -0.823861 0.257327
vn 0.088685 -0.823857 0.559817
vn 0.372750 -0.610792 0.698563
vn 0.698594 -0.610766 0.372734
vn 0.433280 -0.298517 0.850386
vn 0.850386 -0.298517 0.433280
vn 0.587712 0.091859 0.803839
vn 0.803839 0.091859 0.587712
vn 0.631370 0.450272 0.631370
vn 0.947952 0.091859 0.304875
vn 0.881908 0.450262 0.139650
vn 0.995768 0.091856 0.002991
vn 0.680003 0.727183 0.093812
vn 0.617746 0.727184 -0.299321
vn 0.358943 0.915272 0.182859
vn 0.284848 0.915272 -0.284848
vn 0.000000 1.000000 0.000000
vn -0.182859 0.915272 -0.358943
vn -0.397883 0.915271 0.062987
vn -0.675721 0.727174 -0.120911
vn -0.605288 0.727176 0.323793
vn -0.795575 0.450246 0.405386
vn -0.405335 0.450257 0.795595
vn -0.582873 0.091856 0.807355
vn -0.310548 0.091858 0.946109
vn -0.149296 -0.298530 0.942651
vn 0.002991 0.091856 0.995768
vn 0.304875 0.091859 0.947952
vn 0.139710 0.450258 0.881901
vn 0.120911 0.727174 0.675721
vn 0.475590 0.727179 0.494999
vn -0.062987 0.915271 0.397883
vn -0.138614 -0.610795 0.779561
vn -0.674865 -0.298522 0.674865
vn -0.549197 -0.610781 0.570376
vn -0.942651 -0.298530 0.149296
vn -0.784248 -0.610785 0.109071
vn -0.850386 -0.298517 -0.433280
vn -0.807355 0.091856 0.582873
vn -0.946109 0.091858 0.310548
vn -0.881901 0.450258 -0.139710
vn -0.995768 0.091856 -0.002991
vn -0.947952 0.091859 -0.304875
vn 0.299321 0.727184 -0.617746
vn -0.139710 0.450258 -0.881901
vn -0.093812 0.727183 -0.680003
vn -0.631370 0.450272 -0.631370
vn -0.494999 0.727179 -0.475590
vn -0.304875 0.091859 -0.947952
vn -0.587712 0.091859 -0.803839
vn -0.803839 0.091859 -0.587712
vn 0.109071 -0.610785 -0.784248
vn -0.323793 0.727176 0.605288
vn 0.000000 -1.000000 0.000000
vn 0.000000 -1.000000 0.000000
vn 0.000000 -1.000000 0.000000
vn 0.000000 -1.000000 0.000000
vn 0.866026 0.499999 0.000000
vn 0.000000 1.000000 0.000000
vn 0.000000 0.499999 0.866026
vn 0.000000 0.499999 -0.866026
vn -0.866026 0.499999 0.000000
vn 0.000000 0.499999 0.866026
vn 0.000000 0.499999 -0.866026

g polygon0
s 1
usemtl mat1
f 1/1/1 2/2/2 3/3/3
f 1/1/1 4/4/4 2/2/2
f 5/5/5 4/4/4 1/1/1
f 5/5/5 6/6/6 4/4/4
f 7/7/7 6/6/6 5/5/5
f 7/7/7 8/8/8 6/6/6
f 9/9/9 8/8/8 7/7/7
f 9/9/9 10/10/10 8/8/8
f 11/11/11 10/10/10 9/9/9
f 11/11/11 12/12/12 10/10/10
f 13/13/13 12/12/12 11/11/11
f 13/13/13 14/14/14 12/12/12
f 15/15/15 14/14/14 13/13/13
f 15/15/15 16/16/16 14/14/14
f 17/17/17 16/16/16 15/15/15
f 17/17/17 18/18/18 16/16/16
f 19/19/19 18/18/18 17/17/17
f 19/19/19 20/20/20 18/18/18
f 3/3/3 20/20/20 19/19/19
f 3/3/3 21/21/21 20/20/20
f 2/2/2 21/21/21 3/3/3
f 2/2/2 22/22/22 21/21/21
f 23/23/23 22/22/22 2/2/2
f 23/23/23 24/24/24 22/22/22
f 25/25/25 24/24/24 23/23/23
f 25/25/25 26/26/26 24/24/24
f 27/27/27 26/26/26 25/25/25
f 27/27/27 28/28/28 26/26/26
f 29/29/29 28/28/28 27/27/27
f 29/29/29 30/30/30 28/28/28
f 31/31/31 30/30/30 29/29/29
f 31/31/31 8/8/8 30/30/30
f 6/6/6 8/8/8 31/31/31
f 10/10/10 30/30/30 8/8/8
f 10/10/10 32/32/32 30/30/30
f 33/33/33 32/32/32 10/10/10
f 33/33/33 34/34/34 32/32/32
f 35/35/35 34/34/34 33/33/33
f 35/35/35 36/36/36 34/34/34
f 37/37/37 36/36/36 35/35/35
f 37/37/37 38/38/38 36/36/36
f 39/39/39 38/38/38 37/37/37
f 39/39/39 40/40/40 38/38/38
f 41/41/41 40/40/40 39/39/39
f 41/41/41 42/42/42 40/40/40
f 43/43/43 42/42/42 41/41/41
f 43/43/43 44/44/44 42/42/42
f 45/45/45 44/44/44 43/43/43
f 45/45/45 46/46/46 44/44/44
f 24/24/24 46/46/46 45/45/45
f 24/24/24 47/47/47 46/46/46
f 26/26/26 47/47/47 24/24/24
f 26/26/26 48/48/48 47/47/47
f 28/28/28 48/48/48 26/26/26
f 28/28/28 49/49/49 48/48/48
f 50/50/50 49/49/49 28/28/28
f 50/50/50 51/51/51 49/49/49
f 34/34/34 51/51/51 50/50/50
f 34/34/34 36/36/36 51/51/51
f 45/45/45 22/22/22 24/24/24
f 45/45/45 52/52/52 22/22/22
f 53/53/53 52/52/52 45/45/45
f 53/53/53 54/54/54 52/52/52
f 55/55/55 54/54/54 53/53/53
f 55/55/55 56/56/56 54/54/54
f 57/57/57 56/56/56 55/55/55
f 57/57/57 18/18/18 56/56/56
f 16/16/16 18/18/18 57/57/57
f 43/43/43 53/53/53 45/45/45
f 43/43/43 58/58/58 53/53/53
f 41/41/41 58/58/58 43/43/43
f 41/41/41 59/59/59 58/58/58
f 60/60/60 59/59/59 41/41/41
f 60/60/60 61/61/61 59/59/59
f 62/62/62 61/61/61 60/60/60
f 62/62/62 55/55/55 61/61/61
f 57/57/57 55/55/55 62/62/62
f 12/12/12 33/33/33 10/10/10
f 12/12/12 63/63/63 33/33/33
f 64/64/64 63/63/63 12/12/12
f 64/64/64 65/65/65 63/63/63
f 66/66/66 65/65/65 64/64/64
f 66/66/66 67/67/67 65/65/65
f 60/60/60 67/67/67 66/66/66
f 60/60/60 39/39/39 67/67/67
f 41/41/41 39/39/39 60/60/60
f 14/14/14 64/64/64 12/12/12
f 14/14/14 68/68/68 64/64/64
f 16/16/16 68/68/68 14/14/14
f 16/16/16 69/69/69 68/68/68
f 57/57/57 69/69/69 16/16/16
f 57/57/57 70/70/70 69/69/69
f 62/62/62 70/70/70 57/57/57
f 62/62/62 66/66/66 70/70/70
f 60/60/60 66/66/66 62/62/62
f 71/71/71 5/5/5 1/1/1
f 71/71/71 7/7/7 5/5/5
f 15/15/15 7/7/7 71/71/71
f 15/15/15 11/11/11 7/7/7
f 13/13/13 11/11/11 15/15/15
f 4/4/4 23/23/23 2/2/2
f 4/4/4 25/25/25 23/23/23
f 6/6/6 25/25/25 4/4/4
f 6/6/6 29/29/29 25/25/25
f 31/31/31 29/29/29 6/6/6
f 48/48/48 46/46/46 47/47/47
f 48/48/48 42/42/42 46/46/46
f 72/72/72 42/42/42 48/48/48
f 72/72/72 40/40/40 42/42/42
f 38/38/38 40/40/40 72/72/72
f 19/19/19 1/1/1 3/3/3
f 19/19/19 71/71/71 1/1/1
f 17/17/17 71/71/71 19/19/19
f 17/17/17 15/15/15 71/71/71
f 59/59/59 53/53/53 58/58/58
f 59/59/59 55/55/55 53/53/53
f 61/61/61 55/55/55 59/59/59
f 73/73/73 74/74/74 75/75/75
f 73/73/73 76/76/76 74/74/74
f 77/77/77 78/78/78 79/79/79
f 77/77/77 80/80/80 78/78/78
f 78/78/78 81/81/81 82/82/82
f 78/78/78 83/83/83 81/81/81
f 52/52/52 21/21/21 22/22/22
f 52/52/52 54/54/54 21/21/21
f 54/54/54 20/20/20 21/21/21
f 54/54/54 56/56/56 20/20/20
f 66/66/66 69/69/69 70/70/70
f 66/66/66 64/64/64 69/69/69
f 30/30/30 50/50/50 28/28/28
f 30/30/30 32/32/32 50/50/50
f 49/49/49 72/72/72 48/48/48
f 49/49/49 51/51/51 72/72/72
f 63/63/63 35/35/35 33/33/33
f 63/63/63 65/65/65 35/35/35
f 65/65/65 37/37/37 35/35/35
f 65/65/65 67/67/67 37/37/37
f 51/51/51 38/38/38 72/72/72
f 51/51/51 36/36/36 38/38/38
f 7/7/7 11/11/11 9/9/9
f 25/25/25 29/29/29 27/27/27
f 56/56/56 18/18/18 20/20/20
f 44/44/44 46/46/46 42/42/42
f 68/68/68 69/69/69 64/64/64
f 50/50/50 32/32/32 34/34/34
f 67/67/67 39/39/39 37/37/37

